<?xml version="1.0" encoding="UTF-8"?>
<svg width="517px" height="527px" viewBox="0 0 517 527" version="1.1" xmlns="http://www.w3.org/2000/svg" xmlns:xlink="http://www.w3.org/1999/xlink">
    <title>logo</title>
    <g id="Page-1" stroke="none" stroke-width="1" fill="none" fill-rule="evenodd">
        <g id="logo" fill-rule="nonzero">
            <path d="M258.151,504.433 C258.151,504.433 -3.295,403.535 22.603,99.061 L22.655,99.062 C22.655,99.062 119.634,20.077 258.623,19.5070003 C396.133,18.949 491.896,97.262 493.92,98.929 L493.901,98.929 C519.839,403.445 258.357,504.359 258.357,504.359" id="Path" fill="#FFFFFF"></path>
            <g id="Group">
                <path d="M514.805,98.453 L514.827,98.453 C514.827,98.453 514.808,98.431 514.803,98.422 C514.802,98.42 514.802,98.417 514.802,98.414 L514.796,98.414 C513.435,96.785 431.771,-0.059 258.632,0.437085945 C84.852,0.939 3.777,96.153 1.812,98.491 L1.709,98.489 C-24.447,417.127 258.15,527.002 258.15,527.002 L258.15,504.434 C258.15,504.434 -3.296,403.536 22.602,99.062 L22.654,99.063 C22.654,99.063 119.633,20.078 258.622,19.511 C396.132,18.95 491.895,97.263 493.919,98.93 L493.9,98.93 C519.838,403.446 258.356,504.36 258.356,504.36 L258.356,526.926 C258.359,526.925 540.935,417.058 514.805,98.453 Z" id="Path" fill="#000000"></path>
                <path d="M36.419,107.991 C36.419,107.991 138.864,34.748 260.864,34.2182273 C382.864,33.694 480.036,108.466 480.036,108.466 C480.036,108.466 507.373,370.322 258.869,488.808 C3.894,369.029 36.419,107.991 36.419,107.991 L36.419,107.991 Z" id="Path" fill="#000000"></path>
                <path d="M147.423,134.532 C151.981,134.532 155.575,133.924 158.211,132.708 C160.844,131.493 162.818,129.847 164.137,127.77 C165.451,125.695 166.287,123.34 166.644,120.704 C166.998,118.071 167.176,115.386 167.176,112.651 C167.176,108.195 166.871,104.37 166.264,101.179 C165.656,97.988 164.643,95.355 163.225,93.278 C161.805,91.203 159.856,89.657 157.374,88.643 C154.892,87.632 151.727,87.124 147.879,87.124 C146.763,87.124 145.649,87.176 144.535,87.276 C143.42,87.378 142.306,87.48 141.192,87.58 L141.192,134.532 L147.423,134.532 L147.423,134.532 Z M150.006,191.968 C153.246,191.968 156.159,191.588 158.742,190.828 C161.325,190.068 163.528,188.625 165.351,186.497 C167.175,184.37 168.566,181.407 169.53,177.609 C170.492,173.809 170.974,168.822 170.974,162.641 C170.974,160.919 170.822,158.615 170.518,155.727 C170.214,152.84 169.378,149.98 168.011,147.142 C166.643,144.307 164.566,141.85 161.781,139.774 C158.993,137.699 155.069,136.659 150.006,136.659 L141.193,136.659 L141.193,191.512 C143.928,191.816 146.865,191.968 150.006,191.968 L150.006,191.968 L150.006,191.968 Z M105.181,87.58 L105.181,85.453 L128.124,85.453 C132.38,85.453 136.581,85.377 140.736,85.225 C144.888,85.073 149.093,84.997 153.348,84.997 C157.298,84.997 161.451,85.403 165.807,86.212 C170.161,87.024 174.138,88.392 177.735,90.315 C181.33,92.24 184.294,94.823 186.624,98.064 C188.953,101.307 190.119,105.358 190.119,110.22 C190.119,114.577 188.979,118.249 186.7,121.236 C184.422,124.225 181.66,126.682 178.42,128.606 C175.177,130.531 171.81,132.001 168.315,133.012 C164.821,134.026 161.858,134.683 159.427,134.987 L159.427,135.595 C163.376,135.899 167.48,136.558 171.734,137.57 C175.989,138.584 179.887,140.179 183.434,142.357 C186.979,144.536 189.915,147.397 192.246,150.942 C194.575,154.489 195.741,158.945 195.741,164.312 C195.741,170.189 194.245,175.051 191.259,178.9 C188.27,182.751 184.623,185.79 180.319,188.016 C176.013,190.245 171.43,191.791 166.568,192.651 C161.706,193.512 157.349,193.943 153.502,193.943 C149.246,193.943 145.016,193.89 140.814,193.791 C136.609,193.689 132.381,193.639 128.126,193.639 L105.183,193.639 L105.183,191.512 L119.162,191.512 L119.162,87.58 L105.181,87.58 L105.181,87.58 Z M243.453,143.193 C243.453,142.079 243.401,140.712 243.302,139.089 C243.199,137.47 242.846,135.848 242.238,134.227 C241.632,132.607 240.643,131.24 239.275,130.124 C237.908,129.011 236.009,128.453 233.577,128.453 C230.133,128.453 227.473,129.265 225.6,130.884 C223.725,132.505 222.332,134.557 221.422,137.038 C220.51,139.521 219.926,142.204 219.674,145.091 C219.42,147.978 219.241,150.739 219.142,153.372 L243.454,153.372 L243.454,143.193 L243.453,143.193 Z M219.141,162.338 C219.141,165.985 219.292,169.657 219.597,173.354 C219.901,177.053 220.711,180.397 222.028,183.383 C223.344,186.372 225.269,188.829 227.802,190.752 C230.333,192.677 233.88,193.639 238.439,193.639 C242.489,193.639 245.908,192.879 248.695,191.361 C251.48,189.84 253.759,188.093 255.533,186.119 C257.304,184.142 258.622,182.194 259.483,180.268 C260.342,178.345 260.825,176.925 260.926,176.013 L263.053,176.774 C262.545,178.699 261.686,180.751 260.47,182.927 C259.254,185.106 257.584,187.131 255.456,189.005 C253.329,190.88 250.693,192.45 247.556,193.715 C244.413,194.981 240.616,195.614 236.159,195.614 C230.891,195.614 225.979,194.828 221.422,193.259 C216.862,191.69 212.886,189.411 209.493,186.421 C206.098,183.435 203.439,179.788 201.516,175.481 C199.59,171.177 198.629,166.289 198.629,160.819 C198.629,156.465 199.54,152.211 201.363,148.055 C203.186,143.903 205.693,140.23 208.884,137.039 C212.074,133.848 215.821,131.265 220.128,129.289 C224.432,127.314 229.066,126.326 234.03,126.326 C237.576,126.326 241.121,126.884 244.668,127.998 C248.212,129.114 251.402,130.835 254.24,133.164 C257.075,135.495 259.406,138.508 261.228,142.205 C263.051,145.904 263.963,150.334 263.963,155.5 L219.14,155.5 L219.141,162.338 L219.141,162.338 Z M272.019,171.607 C273.236,174.444 274.474,177.178 275.743,179.811 C277.009,182.447 278.502,184.776 280.224,186.8 C281.945,188.828 284.023,190.473 286.453,191.739 C288.885,193.006 291.871,193.637 295.419,193.637 C296.33,193.637 297.546,193.587 299.065,193.486 C300.586,193.385 302.078,192.954 303.547,192.194 C305.014,191.434 306.281,190.27 307.346,188.7 C308.408,187.13 308.941,184.877 308.941,181.938 C308.941,181.026 308.813,180.09 308.561,179.126 C308.307,178.164 307.775,177.177 306.966,176.163 C306.154,175.152 304.964,174.164 303.395,173.2 C301.824,172.239 299.672,171.251 296.937,170.237 L284.63,165.678 C283.21,165.172 281.69,164.489 280.07,163.626 C278.449,162.767 276.955,161.627 275.589,160.208 C274.221,158.79 273.081,157.093 272.17,155.117 C271.258,153.141 270.802,150.787 270.802,148.052 C270.802,145.115 271.409,142.33 272.626,139.696 C273.841,137.062 275.536,134.757 277.716,132.782 C279.893,130.807 282.526,129.237 285.616,128.072 C288.705,126.908 292.074,126.324 295.72,126.324 C297.643,126.324 299.444,126.529 301.115,126.932 C302.786,127.338 304.305,127.768 305.674,128.224 C307.043,128.68 308.257,129.112 309.32,129.515 C310.383,129.921 311.218,130.123 311.827,130.123 C312.94,130.123 313.651,129.921 313.954,129.515 C314.259,129.112 314.511,128.656 314.715,128.148 L316.842,128.148 L316.842,146.685 L314.866,146.685 C313.851,144.254 312.815,141.925 311.752,139.697 C310.689,137.469 309.421,135.518 307.954,133.846 C306.483,132.174 304.685,130.859 302.558,129.895 C300.431,128.934 297.796,128.452 294.658,128.452 C291.314,128.452 288.251,129.34 285.466,131.111 C282.679,132.884 281.287,135.493 281.287,138.936 C281.287,139.646 281.388,140.456 281.592,141.368 C281.794,142.28 282.249,143.218 282.959,144.179 C283.667,145.143 284.782,146.105 286.302,147.067 C287.823,148.031 289.847,148.966 292.38,149.878 L305.295,154.285 C310.766,156.21 314.918,158.743 317.755,161.882 C320.59,165.024 322.01,169.025 322.01,173.886 C322.01,177.229 321.274,180.244 319.806,182.927 C318.337,185.613 316.41,187.891 314.033,189.764 C311.652,191.64 308.89,193.083 305.753,194.095 C302.611,195.106 299.372,195.615 296.027,195.615 C294.205,195.615 292.228,195.411 290.101,195.008 C287.973,194.602 285.922,194.12 283.948,193.564 C281.972,193.008 280.174,192.527 278.553,192.122 C276.931,191.718 275.666,191.514 274.754,191.514 C273.942,191.514 273.359,191.666 273.007,191.97 C272.652,192.273 272.322,192.831 272.019,193.641 L269.892,193.641 L269.892,171.61 L272.019,171.61 L272.019,171.607 Z M341.838,110.372 C343.406,110.778 344.952,110.98 346.472,110.98 C347.993,110.98 349.534,110.778 351.107,110.372 C352.676,109.968 354.222,109.46 355.742,108.852 L355.742,128.454 L373.519,128.454 L373.519,130.581 L355.742,130.581 L355.742,181.483 C355.742,183.003 355.843,184.421 356.047,185.738 C356.248,187.054 356.629,188.245 357.187,189.308 C357.743,190.371 358.554,191.207 359.619,191.816 C360.681,192.422 362.074,192.726 363.798,192.726 C365.721,192.726 367.368,192.324 368.736,191.511 C370.103,190.701 371.295,189.664 372.306,188.397 C373.318,187.13 374.154,185.688 374.814,184.066 C375.471,182.447 376.003,180.875 376.41,179.356 L378.688,179.812 C378.081,183.256 377.042,186.017 375.573,188.092 C374.104,190.169 372.432,191.765 370.559,192.878 C368.683,193.992 366.684,194.726 364.557,195.081 C362.43,195.435 360.402,195.613 358.479,195.613 C353.211,195.613 349.134,195.006 346.248,193.79 C343.36,192.574 341.233,191.055 339.867,189.232 C338.5,187.408 337.714,185.432 337.512,183.305 C337.308,181.177 337.209,179.202 337.209,177.379 L337.209,130.579 L327.026,130.579 L327.026,128.452 L337.209,128.452 L337.209,108.85 C338.723,109.46 340.266,109.968 341.838,110.372 L341.838,110.372 Z" id="Shape" fill="#FFFFFF"></path>
                <path d="M115.189,191.439 L115.189,193.566 L101.21,193.566 L101.21,297.497 L115.189,297.497 L115.189,299.624 L65.199,299.624 L65.199,297.497 L79.178,297.497 L79.178,193.566 L65.199,193.566 L65.199,191.439 L115.189,191.439 L115.189,191.439 Z M119.292,277.591 C120.508,280.429 121.746,283.163 123.015,285.796 C124.281,288.433 125.774,290.761 127.497,292.786 C129.219,294.813 131.296,296.46 133.726,297.724 C136.158,298.994 139.144,299.622 142.691,299.622 C143.603,299.622 144.819,299.573 146.338,299.47 C147.857,299.372 149.351,298.941 150.819,298.179 C152.287,297.419 153.555,296.257 154.618,294.685 C155.682,293.117 156.215,290.865 156.215,287.923 C156.215,287.011 156.086,286.075 155.835,285.112 C155.58,284.151 155.049,283.163 154.238,282.149 C153.426,281.137 152.237,280.149 150.669,279.184 C149.097,278.223 146.945,277.237 144.211,276.221 L131.902,271.662 C130.482,271.156 128.964,270.474 127.344,269.611 C125.722,268.752 124.229,267.613 122.861,266.193 C121.494,264.775 120.354,263.077 119.442,261.104 C118.531,259.126 118.075,256.773 118.075,254.038 C118.075,251.1 118.683,248.316 119.898,245.682 C121.114,243.048 122.809,240.744 124.988,238.768 C127.166,236.792 129.8,235.224 132.89,234.058 C135.978,232.896 139.347,232.311 142.994,232.311 C144.918,232.311 146.718,232.515 148.389,232.918 C150.061,233.324 151.579,233.753 152.948,234.209 C154.315,234.665 155.531,235.098 156.594,235.501 C157.657,235.907 158.493,236.108 159.102,236.108 C160.215,236.108 160.925,235.907 161.229,235.501 C161.533,235.098 161.784,234.642 161.989,234.133 L164.116,234.133 L164.116,252.671 L162.141,252.671 C161.127,250.239 160.089,247.91 159.026,245.682 C157.963,243.454 156.694,241.503 155.227,239.831 C153.757,238.16 151.959,236.844 149.832,235.88 C147.705,234.919 145.069,234.438 141.932,234.438 C138.589,234.438 135.524,235.327 132.739,237.096 C129.951,238.87 128.56,241.48 128.56,244.921 C128.56,245.631 128.66,246.442 128.864,247.354 C129.066,248.265 129.522,249.204 130.232,250.166 C130.939,251.129 132.055,252.091 133.574,253.053 C135.095,254.017 137.119,254.952 139.652,255.865 L152.568,260.27 C158.038,262.196 162.19,264.728 165.028,267.866 C167.862,271.007 169.282,275.009 169.282,279.87 C169.282,283.214 168.547,286.227 167.079,288.911 C165.609,291.597 163.683,293.876 161.306,295.749 C158.925,297.624 156.162,299.069 153.025,300.079 C149.884,301.091 146.643,301.6 143.3,301.6 C141.477,301.6 139.501,301.395 137.373,300.993 C135.246,300.587 133.195,300.104 131.22,299.548 C129.244,298.993 127.445,298.511 125.825,298.107 C124.204,297.703 122.938,297.5 122.026,297.5 C121.215,297.5 120.633,297.652 120.279,297.955 C119.924,298.26 119.595,298.818 119.291,299.627 L117.164,299.627 L117.164,277.594 L119.292,277.594 L119.292,277.591 L119.292,277.591 Z M201.798,190.071 L201.798,297.497 L211.978,297.497 L211.978,299.624 L173.08,299.624 L173.08,297.497 L183.261,297.497 L183.261,192.199 L173.08,192.199 L173.08,190.071 L201.798,190.071 L201.798,190.071 Z M250.874,261.942 C250.671,262.548 250.29,263.132 249.734,263.69 C249.176,264.247 248.189,264.88 246.771,265.587 C244.846,266.499 242.92,267.388 240.997,268.247 C239.072,269.108 237.351,270.198 235.831,271.513 C234.312,272.831 233.07,274.452 232.109,276.376 C231.145,278.302 230.665,280.782 230.665,283.821 C230.665,285.036 230.741,286.456 230.894,288.075 C231.046,289.698 231.45,291.266 232.11,292.786 C232.767,294.306 233.756,295.598 235.072,296.661 C236.388,297.724 238.212,298.257 240.544,298.257 C241.858,298.257 243.149,297.952 244.418,297.345 C245.684,296.738 246.822,295.802 247.837,294.534 C248.848,293.268 249.659,291.595 250.268,289.518 C250.876,287.444 251.18,284.936 251.18,281.997 L251.18,261.942 L250.874,261.942 L250.874,261.942 Z M275.718,300.994 C273.032,301.396 270.527,301.601 268.197,301.601 C263.031,301.601 259.206,300.689 256.725,298.867 C254.242,297.043 252.698,294.512 252.091,291.267 L251.786,291.267 C250.165,295.322 247.935,298.054 245.099,299.472 C242.262,300.89 238.16,301.601 232.791,301.601 C230.359,301.601 227.877,301.345 225.346,300.839 C222.813,300.331 220.484,299.527 218.356,298.409 C216.229,297.294 214.505,295.749 213.19,293.774 C211.872,291.797 211.215,289.393 211.215,286.555 C211.215,283.617 211.796,281.16 212.962,279.186 C214.126,277.209 215.645,275.54 217.521,274.17 C219.394,272.803 221.521,271.691 223.902,270.828 C226.281,269.969 228.739,269.133 231.272,268.32 C235.424,267.105 238.793,266.068 241.376,265.205 C243.959,264.348 245.958,263.435 247.378,262.47 C248.796,261.509 249.782,260.419 250.341,259.203 C250.897,257.988 251.177,256.418 251.177,254.493 L251.177,245.224 C251.177,242.489 250.517,240.006 249.201,237.779 C247.884,235.55 245.402,234.436 241.756,234.436 C239.425,234.436 237.4,234.966 235.678,236.031 C233.955,237.093 233.095,239.047 233.095,241.881 C233.095,242.187 233.145,242.717 233.247,243.479 C233.347,244.239 233.448,245.074 233.551,245.986 C233.651,246.898 233.753,247.757 233.855,248.569 C233.956,249.381 234.007,249.937 234.007,250.24 C234.007,251.76 233.651,252.952 232.943,253.811 C232.233,254.671 231.398,255.306 230.436,255.709 C229.472,256.115 228.461,256.343 227.397,256.394 C226.335,256.447 225.446,256.468 224.738,256.468 C223.724,256.468 222.687,256.394 221.624,256.24 C220.561,256.088 219.623,255.735 218.812,255.177 C218,254.621 217.316,253.835 216.761,252.823 C216.203,251.811 215.925,250.444 215.925,248.719 C215.925,246.086 216.658,243.733 218.128,241.655 C219.596,239.58 221.547,237.857 223.978,236.489 C226.409,235.122 229.168,234.084 232.259,233.374 C235.348,232.667 238.565,232.312 241.907,232.312 C245.757,232.312 249.377,232.616 252.771,233.221 C256.165,233.829 259.101,234.947 261.583,236.566 C264.062,238.188 266.04,240.391 267.509,243.174 C268.976,245.961 269.712,249.482 269.712,253.736 L269.712,291.418 C269.712,293.344 269.989,295.041 270.548,296.508 C271.104,297.979 272.497,298.711 274.727,298.711 C276.042,298.711 277.132,298.459 277.996,297.951 C278.853,297.445 279.689,296.736 280.503,295.824 L281.87,297.191 C280.451,299.322 278.401,300.585 275.718,300.994 L275.718,300.994 Z M292.508,297.498 L292.508,236.569 L282.48,236.569 L282.48,234.442 L310.743,234.442 L310.743,249.635 L311.048,249.635 C311.45,248.723 312.16,247.332 313.175,245.456 C314.186,243.583 315.654,241.733 317.58,239.91 C319.504,238.087 321.986,236.491 325.025,235.124 C328.064,233.756 331.863,233.072 336.421,233.072 C343.107,233.072 348.296,234.998 351.994,238.844 C355.69,242.697 357.54,247.961 357.54,254.649 L357.54,297.497 L367.722,297.497 L367.722,299.624 L329.583,299.624 L329.583,297.497 L339.004,297.497 L339.004,249.483 C339.004,245.227 338.142,242.113 336.421,240.136 C334.696,238.161 332.367,237.173 329.431,237.173 C327,237.173 324.669,237.757 322.442,238.92 C320.213,240.086 318.263,241.834 316.592,244.163 C314.92,246.494 313.576,249.381 312.565,252.824 C311.551,256.268 311.046,260.321 311.046,264.979 L311.046,297.497 L320.618,297.497 L320.618,299.624 L282.478,299.624 L282.478,297.497 L292.508,297.497 L292.508,297.498 Z M420.521,256.32 C420.166,252.47 419.431,248.925 418.319,245.683 C417.203,242.443 415.532,239.756 413.304,237.629 C411.075,235.502 408.085,234.44 404.339,234.44 C401.805,234.44 399.651,234.998 397.881,236.111 C396.107,237.226 394.663,239.049 393.55,241.582 C392.435,244.115 391.651,247.484 391.196,251.686 C390.74,255.89 390.511,261.032 390.511,267.109 C390.511,272.072 390.637,276.552 390.891,280.554 C391.143,284.558 391.702,287.976 392.563,290.81 C393.422,293.65 394.69,295.826 396.362,297.343 C398.034,298.864 400.287,299.622 403.124,299.622 C407.38,299.622 410.694,298.536 413.077,296.356 C415.456,294.176 417.256,291.444 418.472,288.151 C419.687,284.86 420.42,281.313 420.675,277.514 C420.927,273.713 421.055,270.246 421.055,267.106 C421.054,263.765 420.876,260.171 420.521,256.32 L420.521,256.32 Z M449.619,297.498 L449.619,299.625 L421.356,299.625 L421.356,288.38 L421.052,288.38 C419.43,292.634 417.177,295.901 414.289,298.181 C411.402,300.46 407.68,301.601 403.121,301.601 C398.157,301.601 393.647,300.636 389.599,298.712 C385.546,296.79 382.078,294.232 379.191,291.038 C376.303,287.849 374.048,284.177 372.429,280.022 C370.807,275.87 369.997,271.512 369.997,266.956 C369.997,263.411 370.628,259.613 371.895,255.56 C373.161,251.508 375.136,247.759 377.822,244.317 C380.506,240.874 383.924,238.009 388.078,235.732 C392.23,233.452 397.245,232.313 403.121,232.313 C407.68,232.313 411.376,233.375 414.213,235.502 C417.049,237.629 419.228,240.82 420.747,245.074 L421.052,245.074 L421.052,192.197 L410.72,192.197 L410.72,190.069 L439.589,190.069 L439.589,297.494 L449.619,297.494 L449.619,297.498 Z" id="Shape" fill="#FFFFFF"></path>
                <path d="M195.242,346.031 C199.801,346.031 203.395,345.422 206.03,344.207 C208.663,342.992 210.638,341.346 211.956,339.268 C213.271,337.194 214.107,334.838 214.464,332.204 C214.818,329.571 214.995,326.886 214.995,324.151 C214.995,319.694 214.691,315.87 214.084,312.676 C213.477,309.487 212.463,306.854 211.045,304.778 C209.626,302.702 207.676,301.157 205.194,300.143 C202.712,299.129 199.547,298.622 195.698,298.622 C194.583,298.622 193.469,298.675 192.355,298.774 C191.239,298.876 190.126,298.977 189.012,299.079 L189.012,346.03 L195.241,346.03 L195.241,346.031 L195.242,346.031 Z M197.825,403.464 C201.066,403.464 203.979,403.085 206.562,402.325 C209.145,401.565 211.348,400.122 213.172,397.995 C214.994,395.866 216.386,392.903 217.35,389.106 C218.312,385.305 218.793,380.319 218.793,374.137 C218.793,372.416 218.642,370.112 218.338,367.223 C218.033,364.336 217.197,361.475 215.83,358.637 C214.463,355.803 212.386,353.346 209.601,351.27 C206.814,349.196 202.889,348.155 197.825,348.155 L189.013,348.155 L189.013,403.009 C191.749,403.314 194.686,403.464 197.825,403.464 L197.825,403.464 L197.825,403.464 Z M153.002,299.078 L153.002,296.951 L175.945,296.951 C180.199,296.951 184.401,296.875 188.556,296.722 C192.709,296.572 196.912,296.493 201.168,296.493 C205.117,296.493 209.271,296.899 213.627,297.708 C217.981,298.52 221.957,299.89 225.555,301.812 C229.15,303.738 232.113,306.322 234.444,309.562 C236.773,312.804 237.939,316.857 237.939,321.716 C237.939,326.073 236.799,329.747 234.52,332.734 C232.241,335.722 229.48,338.179 226.239,340.103 C222.996,342.029 219.63,343.499 216.135,344.509 C212.64,345.525 209.677,346.181 207.245,346.486 L207.245,347.091 C211.195,347.396 215.299,348.056 219.553,349.07 C223.808,350.082 227.705,351.677 231.253,353.855 C234.798,356.035 237.734,358.894 240.065,362.441 C242.394,365.988 243.56,370.443 243.56,375.81 C243.56,381.687 242.064,386.548 239.078,390.398 C236.09,394.25 232.442,397.289 228.138,399.513 C223.831,401.743 219.25,403.288 214.387,404.15 C209.525,405.009 205.168,405.441 201.32,405.441 C197.065,405.441 192.835,405.388 188.632,405.289 C184.427,405.187 180.198,405.137 175.944,405.137 L153.001,405.137 L153.001,403.01 L166.98,403.01 L166.98,299.078 L153.002,299.078 L153.002,299.078 Z M272.432,339.953 L272.432,388.119 C272.432,391.971 273.191,395.238 274.711,397.92 C276.23,400.608 278.912,401.947 282.764,401.947 C285.093,401.947 287.22,401.39 289.146,400.275 C291.07,399.162 292.717,397.668 294.084,395.793 C295.452,393.92 296.516,391.717 297.274,389.184 C298.035,386.655 298.415,384.018 298.415,381.284 L298.415,342.08 L288.387,342.08 L288.387,339.953 L316.952,339.953 L316.952,403.012 L326.98,403.012 L326.98,405.139 L298.718,405.139 L298.718,392.83 L298.413,392.83 C297.601,395.06 296.386,397.01 294.767,398.68 C293.145,400.354 291.296,401.774 289.221,402.936 C287.143,404.102 284.94,404.963 282.612,405.52 C280.281,406.075 278.002,406.356 275.774,406.356 C268.682,406.356 263.262,404.811 259.515,401.719 C255.766,398.631 253.893,393.389 253.893,385.994 L253.893,342.08 L243.713,342.08 L243.713,339.953 L272.432,339.953 L272.432,339.953 Z M332.146,383.105 C333.361,385.943 334.601,388.675 335.869,391.31 C337.136,393.945 338.629,396.275 340.351,398.298 C342.073,400.325 344.15,401.97 346.58,403.237 C349.012,404.505 351.999,405.133 355.546,405.133 C356.456,405.133 357.673,405.084 359.192,404.983 C360.713,404.881 362.206,404.452 363.675,403.692 C365.142,402.93 366.409,401.768 367.473,400.198 C368.537,398.628 369.07,396.374 369.07,393.434 C369.07,392.524 368.941,391.586 368.689,390.623 C368.435,389.662 367.904,388.674 367.094,387.66 C366.282,386.648 365.092,385.66 363.523,384.697 C361.952,383.736 359.8,382.748 357.065,381.734 L344.757,377.173 C343.338,376.667 341.818,375.985 340.198,375.122 C338.576,374.263 337.084,373.122 335.717,371.704 C334.349,370.286 333.209,368.589 332.298,366.612 C331.386,364.637 330.93,362.282 330.93,359.548 C330.93,356.61 331.537,353.825 332.754,351.191 C333.969,348.558 335.663,346.253 337.844,344.279 C340.021,342.302 342.655,340.734 345.744,339.568 C348.834,338.406 352.202,337.82 355.848,337.82 C357.771,337.82 359.571,338.025 361.243,338.427 C362.915,338.833 364.433,339.263 365.802,339.72 C367.17,340.175 368.385,340.607 369.448,341.011 C370.51,341.415 371.346,341.618 371.956,341.618 C373.068,341.618 373.778,341.415 374.083,341.011 C374.387,340.607 374.639,340.152 374.843,339.644 L376.97,339.644 L376.97,358.181 L374.995,358.181 C373.979,355.749 372.943,353.419 371.88,351.191 C370.816,348.964 369.549,347.013 368.081,345.341 C366.611,343.669 364.812,342.355 362.685,341.39 C360.558,340.429 357.923,339.949 354.785,339.949 C351.441,339.949 348.378,340.836 345.593,342.607 C342.806,344.378 341.415,346.99 341.415,350.431 C341.415,351.142 341.514,351.952 341.718,352.863 C341.92,353.775 342.376,354.713 343.086,355.674 C343.793,356.639 344.908,357.602 346.429,358.563 C347.949,359.526 349.973,360.461 352.507,361.374 L365.422,365.782 C370.892,367.706 375.045,370.239 377.882,373.378 C380.717,376.521 382.136,380.521 382.136,385.382 C382.136,388.726 381.4,391.741 379.933,394.423 C378.464,397.109 376.538,399.388 374.16,401.261 C371.779,403.136 369.017,404.581 365.88,405.591 C362.738,406.603 359.498,407.111 356.154,407.111 C354.332,407.111 352.355,406.908 350.227,406.506 C348.1,406.1 346.049,405.617 344.075,405.063 C342.098,404.506 340.301,404.026 338.679,403.62 C337.058,403.216 335.793,403.013 334.881,403.013 C334.069,403.013 333.486,403.165 333.133,403.468 C332.777,403.773 332.45,404.331 332.146,405.14 L330.019,405.14 L330.019,383.109 L332.146,383.109 L332.146,383.105 L332.146,383.105 Z" id="Shape" fill="#FFFFFF"></path>
            </g>
        </g>
    </g>
</svg>