<?xml version="1.0" encoding="iso-8859-1"?>
<!-- Generator: Adobe Illustrator 15.0.0, SVG Export Plug-In . SVG Version: 6.00 Build 0)  -->
<!DOCTYPE svg PUBLIC "-//W3C//DTD SVG 1.1//EN" "http://www.w3.org/Graphics/SVG/1.1/DTD/svg11.dtd">
<svg version="1.1" id="Layer_1" xmlns="http://www.w3.org/2000/svg" xmlns:xlink="http://www.w3.org/1999/xlink" x="0px" y="0px"
	 width="1133.86px" height="850.39px" viewBox="0 0 1133.86 850.39" style="enable-background:new 0 0 1133.86 850.39;"
	 xml:space="preserve">
<g>
	<path d="M822.805,260.453l0.023,0c0,0-0.019-0.022-0.025-0.031c-0.001-0.002-0.001-0.005-0.001-0.008h-0.006
		c-1.361-1.629-83.025-98.473-256.164-97.975c-173.78,0.5-254.855,95.714-256.82,98.052l-0.103-0.002
		c-26.156,318.637,256.442,428.513,256.442,428.513v-22.568c0,0-261.447-100.9-235.548-405.373l0.052,0.001
		c0,0,96.979-78.985,235.968-79.552c137.509-0.561,233.273,77.752,235.296,79.419l-0.018,0
		c25.937,304.516-235.544,405.43-235.544,405.43v22.567C566.359,688.926,848.935,579.059,822.805,260.453z"/>
	<path d="M344.419,269.991c0,0,102.446-73.243,224.446-73.77s219.172,74.245,219.172,74.245s27.337,261.855-221.167,380.343
		C311.894,531.028,344.419,269.991,344.419,269.991L344.419,269.991z"/>
	<path style="fill:#FFFFFF;" d="M455.423,296.532c4.558,0,8.153-0.608,10.788-1.824c2.633-1.215,4.608-2.861,5.926-4.938
		c1.315-2.075,2.151-4.43,2.507-7.066c0.354-2.633,0.532-5.318,0.532-8.053c0-4.456-0.304-8.281-0.912-11.472
		c-0.608-3.191-1.621-5.824-3.039-7.901c-1.42-2.075-3.369-3.621-5.85-4.635c-2.483-1.011-5.648-1.519-9.496-1.519
		c-1.116,0-2.23,0.052-3.343,0.152c-1.116,0.102-2.23,0.204-3.343,0.304v46.952H455.423L455.423,296.532z M458.006,353.968
		c3.241,0,6.154-0.38,8.737-1.14s4.786-2.203,6.609-4.331c1.824-2.127,3.215-5.09,4.179-8.888c0.962-3.799,1.444-8.787,1.444-14.967
		c0-1.722-0.152-4.027-0.456-6.914c-0.304-2.887-1.14-5.748-2.507-8.585c-1.368-2.835-3.445-5.292-6.23-7.369
		c-2.788-2.075-6.712-3.115-11.776-3.115h-8.813v54.853C451.928,353.816,454.865,353.968,458.006,353.968L458.006,353.968
		L458.006,353.968z M413.181,249.58v-2.127h22.944c4.255,0,8.457-0.076,12.612-0.228c4.152-0.152,8.357-0.228,12.612-0.228
		c3.95,0,8.103,0.406,12.459,1.215c4.355,0.812,8.331,2.18,11.928,4.103c3.595,1.925,6.558,4.508,8.889,7.749
		c2.329,3.243,3.495,7.294,3.495,12.156c0,4.357-1.14,8.029-3.419,11.016c-2.279,2.989-5.04,5.446-8.281,7.37
		c-3.243,1.925-6.61,3.395-10.105,4.406c-3.494,1.014-6.457,1.671-8.888,1.975v0.608c3.95,0.304,8.053,0.964,12.307,1.975
		c4.255,1.014,8.153,2.61,11.7,4.787c3.545,2.179,6.482,5.04,8.813,8.585c2.329,3.547,3.495,8.003,3.495,13.371
		c0,5.876-1.496,10.739-4.483,14.587c-2.989,3.851-6.635,6.89-10.94,9.117c-4.306,2.229-8.889,3.775-13.751,4.634
		c-4.862,0.862-9.219,1.292-13.067,1.292c-4.255,0-8.486-0.052-12.688-0.152c-4.205-0.102-8.433-0.152-12.688-0.152h-22.944v-2.127
		h13.98V249.58H413.181L413.181,249.58z M551.454,305.193c0-1.114-0.052-2.481-0.152-4.104c-0.102-1.619-0.456-3.241-1.064-4.862
		c-0.607-1.62-1.595-2.987-2.963-4.103c-1.367-1.113-3.266-1.671-5.698-1.671c-3.445,0-6.104,0.812-7.977,2.431
		c-1.875,1.621-3.267,3.673-4.178,6.154c-0.912,2.483-1.496,5.166-1.748,8.053c-0.254,2.887-0.432,5.648-0.532,8.281h24.312V305.193
		L551.454,305.193z M527.141,324.338c0,3.647,0.152,7.319,0.456,11.016c0.304,3.699,1.114,7.042,2.431,10.029
		c1.316,2.989,3.241,5.446,5.774,7.369c2.531,1.925,6.078,2.887,10.637,2.887c4.05,0,7.469-0.76,10.256-2.279
		c2.785-1.52,5.064-3.267,6.838-5.242c1.771-1.976,3.089-3.925,3.95-5.85c0.859-1.923,1.342-3.343,1.443-4.255l2.127,0.76
		c-0.508,1.925-1.367,3.977-2.583,6.154c-1.216,2.179-2.886,4.204-5.013,6.078c-2.127,1.875-4.763,3.445-7.901,4.71
		c-3.142,1.265-6.94,1.899-11.397,1.899c-5.268,0-10.18-0.786-14.738-2.355c-4.559-1.569-8.536-3.848-11.928-6.838
		c-3.395-2.986-6.054-6.633-7.977-10.94c-1.926-4.304-2.887-9.193-2.887-14.663c0-4.354,0.911-8.608,2.735-12.763
		c1.823-4.153,4.33-7.825,7.521-11.016s6.937-5.774,11.244-7.75c4.304-1.975,8.939-2.963,13.903-2.963
		c3.545,0,7.09,0.558,10.637,1.672c3.544,1.116,6.735,2.837,9.572,5.166c2.835,2.331,5.166,5.344,6.989,9.041
		c1.823,3.699,2.735,8.129,2.735,13.295h-44.825V324.338L527.141,324.338z M580.019,333.607c1.217,2.837,2.455,5.572,3.724,8.205
		c1.265,2.635,2.759,4.964,4.481,6.989c1.721,2.028,3.799,3.673,6.23,4.939c2.431,1.267,5.418,1.899,8.965,1.899
		c0.912,0,2.127-0.05,3.646-0.152c1.52-0.1,3.013-0.532,4.482-1.292c1.467-0.759,2.735-1.923,3.799-3.494
		c1.063-1.57,1.595-3.823,1.595-6.762c0-0.912-0.128-1.847-0.38-2.811c-0.254-0.962-0.786-1.949-1.595-2.963
		c-0.812-1.011-2.002-1.999-3.571-2.963c-1.571-0.961-3.723-1.949-6.458-2.963l-12.307-4.558c-1.42-0.506-2.94-1.19-4.559-2.052
		c-1.621-0.859-3.115-1.999-4.482-3.418c-1.368-1.418-2.507-3.115-3.419-5.091c-0.912-1.975-1.368-4.33-1.368-7.065
		c0-2.937,0.608-5.722,1.824-8.357c1.215-2.633,2.911-4.939,5.09-6.914c2.177-1.975,4.81-3.545,7.901-4.71
		c3.089-1.164,6.458-1.748,10.104-1.748c1.923,0,3.724,0.205,5.395,0.608c1.671,0.406,3.19,0.836,4.558,1.292
		c1.368,0.456,2.583,0.888,3.647,1.291c1.063,0.406,1.898,0.608,2.507,0.608c1.113,0,1.824-0.202,2.127-0.608
		c0.304-0.403,0.556-0.859,0.76-1.367h2.127v18.537h-1.975c-1.015-2.431-2.051-4.76-3.115-6.989
		c-1.063-2.227-2.331-4.179-3.798-5.85c-1.47-1.672-3.268-2.987-5.396-3.951c-2.127-0.961-4.762-1.443-7.9-1.443
		c-3.344,0-6.408,0.888-9.193,2.659c-2.787,1.773-4.178,4.382-4.178,7.825c0,0.71,0.1,1.519,0.304,2.431
		c0.202,0.912,0.657,1.85,1.367,2.811c0.708,0.964,1.824,1.926,3.343,2.887c1.521,0.964,3.545,1.9,6.078,2.811l12.915,4.407
		c5.471,1.925,9.623,4.458,12.46,7.597c2.835,3.141,4.255,7.142,4.255,12.004c0,3.343-0.736,6.358-2.204,9.041
		c-1.469,2.685-3.395,4.964-5.773,6.837c-2.381,1.876-5.143,3.319-8.281,4.331c-3.141,1.011-6.381,1.519-9.725,1.519
		c-1.823,0-3.799-0.204-5.926-0.607c-2.128-0.406-4.179-0.888-6.153-1.444c-1.976-0.556-3.775-1.038-5.395-1.443
		c-1.622-0.404-2.887-0.608-3.799-0.608c-0.812,0-1.394,0.152-1.747,0.456c-0.355,0.303-0.684,0.861-0.988,1.671h-2.127v-22.032
		H580.019L580.019,333.607z M649.838,272.372c1.569,0.406,3.115,0.608,4.634,0.608c1.521,0,3.063-0.202,4.635-0.608
		c1.569-0.404,3.115-0.912,4.635-1.52v19.602h17.777v2.127h-17.777v50.902c0,1.52,0.1,2.939,0.304,4.255
		c0.202,1.317,0.582,2.507,1.14,3.571c0.556,1.063,1.367,1.899,2.432,2.507c1.062,0.607,2.455,0.911,4.178,0.911
		c1.923,0,3.571-0.403,4.938-1.215c1.367-0.81,2.558-1.847,3.57-3.115c1.012-1.266,1.848-2.709,2.508-4.331
		c0.657-1.619,1.189-3.191,1.596-4.71l2.278,0.456c-0.607,3.445-1.646,6.206-3.115,8.281c-1.469,2.077-3.141,3.673-5.014,4.786
		c-1.876,1.114-3.875,1.847-6.002,2.203c-2.127,0.354-4.155,0.532-6.078,0.532c-5.268,0-9.345-0.607-12.231-1.823
		c-2.888-1.216-5.015-2.735-6.381-4.558c-1.368-1.824-2.154-3.799-2.356-5.926c-0.204-2.128-0.303-4.103-0.303-5.926v-46.8h-10.182
		v-2.127h10.182v-19.602C646.723,271.46,648.266,271.968,649.838,272.372L649.838,272.372z"/>
	<path style="fill:#FFFFFF;" d="M423.189,353.439v2.127H409.21v103.932h13.979v2.127h-49.99v-2.127h13.979V355.566h-13.979v-2.127
		H423.189L423.189,353.439z M427.292,439.592c1.216,2.837,2.455,5.572,3.723,8.205c1.266,2.636,2.759,4.965,4.483,6.99
		c1.721,2.027,3.798,3.673,6.229,4.938c2.432,1.268,5.418,1.898,8.965,1.898c0.912,0,2.128-0.05,3.647-0.152
		c1.519-0.099,3.013-0.53,4.482-1.291c1.468-0.76,2.736-1.923,3.799-3.494c1.064-1.569,1.596-3.822,1.596-6.763
		c0-0.911-0.129-1.847-0.38-2.811c-0.254-0.961-0.786-1.949-1.596-2.963c-0.812-1.011-2.001-1.999-3.57-2.963
		c-1.572-0.961-3.723-1.949-6.458-2.964l-12.308-4.558c-1.42-0.506-2.939-1.188-4.558-2.051c-1.622-0.86-3.115-1.999-4.483-3.419
		c-1.367-1.417-2.507-3.115-3.419-5.089c-0.911-1.977-1.367-4.331-1.367-7.066c0-2.937,0.608-5.722,1.823-8.356
		c1.216-2.634,2.911-4.938,5.09-6.914c2.178-1.976,4.811-3.544,7.902-4.71c3.088-1.163,6.457-1.747,10.104-1.747
		c1.923,0,3.723,0.204,5.394,0.607c1.672,0.406,3.191,0.835,4.559,1.291c1.367,0.456,2.583,0.889,3.646,1.292
		c1.064,0.406,1.9,0.607,2.508,0.607c1.113,0,1.823-0.201,2.127-0.607c0.304-0.403,0.555-0.859,0.76-1.368h2.127v18.538h-1.975
		c-1.014-2.432-2.052-4.761-3.115-6.989c-1.064-2.228-2.332-4.179-3.799-5.851c-1.47-1.671-3.267-2.987-5.394-3.951
		c-2.127-0.961-4.763-1.442-7.901-1.442c-3.343,0-6.408,0.888-9.193,2.658c-2.788,1.774-4.179,4.384-4.179,7.825
		c0,0.71,0.1,1.521,0.304,2.433c0.202,0.911,0.658,1.849,1.368,2.811c0.707,0.963,1.823,1.925,3.342,2.887
		c1.52,0.964,3.545,1.899,6.078,2.812l12.916,4.406c5.47,1.925,9.622,4.458,12.46,7.596c2.834,3.141,4.254,7.142,4.254,12.004
		c0,3.343-0.736,6.358-2.203,9.041c-1.47,2.685-3.396,4.964-5.774,6.838c-2.381,1.875-5.143,3.319-8.281,4.33
		c-3.141,1.012-6.382,1.521-9.725,1.521c-1.823,0-3.799-0.205-5.926-0.608c-2.127-0.406-4.178-0.888-6.154-1.444
		c-1.975-0.555-3.775-1.037-5.394-1.442c-1.621-0.404-2.887-0.608-3.799-0.608c-0.811,0-1.393,0.152-1.747,0.456
		c-0.356,0.304-0.684,0.862-0.988,1.671h-2.127v-22.032H427.292L427.292,439.592z M509.798,352.071v107.426h10.18v2.127h-38.898
		v-2.127h10.18V354.199h-10.18v-2.128H509.798L509.798,352.071z M558.875,423.942c-0.204,0.607-0.584,1.191-1.14,1.748
		c-0.558,0.558-1.545,1.191-2.963,1.898c-1.925,0.912-3.851,1.8-5.774,2.659c-1.925,0.862-3.646,1.952-5.166,3.267
		c-1.519,1.318-2.761,2.939-3.722,4.862c-0.964,1.926-1.444,4.407-1.444,7.446c0,1.215,0.076,2.635,0.228,4.254
		c0.152,1.622,0.556,3.191,1.216,4.711c0.657,1.519,1.645,2.812,2.962,3.874c1.316,1.064,3.139,1.596,5.471,1.596
		c1.315,0,2.606-0.304,3.874-0.912c1.266-0.607,2.405-1.543,3.419-2.811c1.011-1.265,1.823-2.938,2.431-5.014
		c0.608-2.075,0.912-4.582,0.912-7.522v-20.056H558.875L558.875,423.942z M583.718,462.993c-2.685,0.403-5.191,0.608-7.521,0.608
		c-5.166,0-8.991-0.912-11.472-2.735c-2.483-1.824-4.027-4.355-4.634-7.598h-0.304c-1.622,4.053-3.851,6.787-6.687,8.204
		c-2.837,1.418-6.939,2.129-12.308,2.129c-2.431,0-4.914-0.255-7.445-0.761c-2.533-0.508-4.862-1.314-6.99-2.431
		c-2.127-1.114-3.851-2.659-5.166-4.635c-1.318-1.976-1.975-4.38-1.975-7.217c0-2.938,0.581-5.395,1.747-7.37
		c1.164-1.976,2.683-3.646,4.559-5.015c1.873-1.367,4-2.48,6.381-3.343c2.379-0.859,4.837-1.695,7.37-2.507
		c4.152-1.215,7.521-2.253,10.104-3.115c2.583-0.858,4.582-1.771,6.002-2.735c1.418-0.961,2.405-2.051,2.963-3.267
		c0.556-1.215,0.836-2.785,0.836-4.71v-9.269c0-2.735-0.66-5.217-1.975-7.445c-1.318-2.228-3.799-3.343-7.446-3.343
		c-2.331,0-4.356,0.531-6.078,1.595c-1.723,1.063-2.583,3.016-2.583,5.85c0,0.305,0.05,0.836,0.152,1.597
		c0.1,0.76,0.202,1.595,0.304,2.507c0.1,0.912,0.202,1.772,0.304,2.583c0.1,0.812,0.152,1.368,0.152,1.671
		c0,1.52-0.356,2.712-1.064,3.571c-0.71,0.861-1.545,1.496-2.507,1.899c-0.964,0.406-1.975,0.634-3.039,0.684
		c-1.063,0.053-1.951,0.075-2.659,0.075c-1.014,0-2.051-0.075-3.115-0.228c-1.063-0.152-2.001-0.505-2.811-1.063
		c-0.812-0.556-1.496-1.342-2.051-2.354c-0.558-1.012-0.836-2.379-0.836-4.104c0-2.633,0.734-4.987,2.203-7.065
		c1.468-2.075,3.419-3.798,5.85-5.166c2.431-1.367,5.19-2.405,8.281-3.115c3.089-0.707,6.306-1.062,9.649-1.062
		c3.849,0,7.469,0.304,10.864,0.91c3.393,0.608,6.33,1.725,8.812,3.344c2.48,1.622,4.457,3.825,5.926,6.609
		c1.467,2.787,2.203,6.307,2.203,10.561v37.682c0,1.926,0.278,3.623,0.836,5.09c0.556,1.471,1.949,2.204,4.179,2.204
		c1.315,0,2.405-0.252,3.268-0.76c0.858-0.506,1.694-1.216,2.507-2.127l1.367,1.367
		C588.452,461.321,586.401,462.586,583.718,462.993L583.718,462.993z M600.508,459.498v-60.93h-10.028v-2.127h28.263v15.194h0.304
		c0.403-0.912,1.113-2.303,2.127-4.179c1.011-1.873,2.48-3.723,4.406-5.546c1.923-1.823,4.406-3.419,7.445-4.786
		c3.039-1.368,6.838-2.052,11.396-2.052c6.686,0,11.875,1.926,15.574,5.773c3.696,3.852,5.546,9.117,5.546,15.804v42.848h10.181
		v2.127h-38.139v-2.127h9.421v-48.014c0-4.255-0.862-7.37-2.583-9.346c-1.724-1.975-4.053-2.963-6.99-2.963
		c-2.431,0-4.762,0.584-6.989,1.747c-2.229,1.166-4.179,2.914-5.85,5.243c-1.672,2.331-3.015,5.218-4.027,8.661
		c-1.014,3.445-1.519,7.497-1.519,12.155v32.517h9.572v2.127h-38.139v-2.127H600.508L600.508,459.498z M728.521,418.32
		c-0.355-3.849-1.09-7.394-2.202-10.636c-1.116-3.241-2.787-5.927-5.015-8.054c-2.229-2.127-5.219-3.19-8.965-3.19
		c-2.534,0-4.687,0.558-6.458,1.671c-1.774,1.116-3.217,2.939-4.331,5.471c-1.115,2.533-1.899,5.902-2.354,10.104
		c-0.456,4.204-0.685,9.345-0.685,15.422c0,4.964,0.126,9.445,0.38,13.446c0.252,4.004,0.811,7.423,1.672,10.257
		c0.859,2.838,2.127,5.015,3.799,6.533c1.672,1.521,3.925,2.279,6.762,2.279c4.255,0,7.57-1.087,9.953-3.267
		c2.379-2.178,4.178-4.912,5.394-8.205c1.215-3.29,1.949-6.837,2.203-10.636c0.252-3.8,0.38-7.268,0.38-10.408
		C729.054,425.765,728.876,422.171,728.521,418.32L728.521,418.32z M757.62,459.498v2.127h-28.263V450.38h-0.304
		c-1.622,4.255-3.875,7.522-6.762,9.801c-2.887,2.279-6.61,3.42-11.168,3.42c-4.964,0-9.474-0.965-13.523-2.888
		c-4.053-1.923-7.521-4.482-10.408-7.674c-2.888-3.19-5.143-6.861-6.762-11.016c-1.622-4.152-2.431-8.51-2.431-13.067
		c0-3.545,0.631-7.343,1.898-11.395c1.266-4.052,3.241-7.801,5.927-11.244c2.683-3.443,6.101-6.307,10.256-8.585
		c4.152-2.28,9.167-3.419,15.043-3.419c4.558,0,8.255,1.062,11.092,3.19c2.835,2.127,5.014,5.318,6.534,9.572h0.304v-52.877h-10.333
		v-2.128h28.87v107.426H757.62L757.62,459.498z"/>
	<path style="fill:#FFFFFF;" d="M503.243,508.03c4.558,0,8.153-0.608,10.788-1.824c2.633-1.215,4.608-2.861,5.926-4.938
		c1.315-2.075,2.151-4.431,2.507-7.066c0.354-2.633,0.532-5.318,0.532-8.053c0-4.456-0.304-8.281-0.912-11.473
		c-0.607-3.19-1.621-5.823-3.039-7.9c-1.419-2.075-3.369-3.621-5.85-4.634c-2.483-1.013-5.648-1.521-9.496-1.521
		c-1.116,0-2.23,0.052-3.343,0.152c-1.116,0.102-2.229,0.204-3.343,0.304v46.952H503.243L503.243,508.03z M505.826,565.465
		c3.241,0,6.154-0.38,8.737-1.14s4.786-2.203,6.61-4.33c1.823-2.128,3.214-5.091,4.178-8.889c0.962-3.799,1.444-8.787,1.444-14.968
		c0-1.721-0.152-4.026-0.456-6.913c-0.304-2.888-1.14-5.748-2.507-8.586c-1.368-2.835-3.445-5.291-6.23-7.368
		c-2.787-2.075-6.712-3.115-11.776-3.115h-8.813v54.853C499.749,565.314,502.686,565.465,505.826,565.465L505.826,565.465
		L505.826,565.465z M461.002,461.078v-2.127h22.944c4.254,0,8.456-0.076,12.611-0.229c4.153-0.151,8.357-0.228,12.612-0.228
		c3.95,0,8.103,0.406,12.459,1.215c4.355,0.812,8.331,2.181,11.928,4.104c3.595,1.925,6.558,4.509,8.889,7.749
		c2.329,3.242,3.495,7.294,3.495,12.155c0,4.357-1.14,8.03-3.419,11.017c-2.279,2.988-5.04,5.446-8.281,7.37
		c-3.243,1.925-6.61,3.395-10.104,4.405c-3.495,1.015-6.458,1.673-8.889,1.976v0.607c3.95,0.305,8.053,0.965,12.307,1.977
		c4.255,1.013,8.153,2.608,11.7,4.786c3.545,2.179,6.482,5.04,8.813,8.585c2.329,3.547,3.495,8.003,3.495,13.371
		c0,5.876-1.496,10.738-4.482,14.587c-2.989,3.851-6.636,6.89-10.941,9.116c-4.306,2.229-8.888,3.775-13.751,4.635
		c-4.862,0.861-9.219,1.292-13.067,1.292c-4.255,0-8.486-0.053-12.688-0.152c-4.205-0.102-8.433-0.152-12.687-0.152h-22.944v-2.127
		h13.979V461.078H461.002L461.002,461.078z M580.432,501.952v48.167c0,3.851,0.759,7.118,2.279,9.801
		c1.519,2.686,4.202,4.026,8.053,4.026c2.329,0,4.456-0.556,6.382-1.671c1.924-1.114,3.571-2.607,4.938-4.483
		c1.368-1.873,2.431-4.076,3.19-6.608c0.761-2.531,1.141-5.167,1.141-7.902v-39.202h-10.029v-2.127h28.566v63.058h10.028v2.127
		h-28.262v-12.308h-0.304c-0.812,2.229-2.028,4.179-3.647,5.85c-1.622,1.673-3.471,3.092-5.546,4.255
		c-2.078,1.166-4.281,2.027-6.609,2.584c-2.331,0.555-4.61,0.836-6.838,0.836c-7.092,0-12.512-1.545-16.259-4.636
		c-3.749-3.089-5.622-8.331-5.622-15.726v-43.913h-10.18v-2.127H580.432L580.432,501.952z M640.146,545.105
		c1.215,2.837,2.455,5.571,3.723,8.205c1.266,2.635,2.759,4.964,4.482,6.988c1.722,2.028,3.799,3.673,6.23,4.939
		c2.431,1.268,5.418,1.898,8.965,1.898c0.911,0,2.127-0.05,3.646-0.151c1.521-0.101,3.014-0.532,4.483-1.291
		c1.467-0.761,2.735-1.924,3.798-3.495c1.064-1.57,1.597-3.823,1.597-6.762c0-0.912-0.129-1.848-0.381-2.812
		c-0.254-0.961-0.785-1.949-1.595-2.963c-0.812-1.011-2.002-1.999-3.571-2.963c-1.571-0.961-3.723-1.949-6.458-2.963l-12.308-4.559
		c-1.419-0.506-2.939-1.189-4.558-2.052c-1.622-0.858-3.115-1.999-4.482-3.418c-1.368-1.418-2.508-3.115-3.419-5.091
		c-0.912-1.975-1.368-4.33-1.368-7.065c0-2.937,0.608-5.722,1.824-8.356c1.215-2.633,2.91-4.938,5.09-6.914
		c2.177-1.976,4.811-3.544,7.901-4.71c3.089-1.163,6.458-1.748,10.104-1.748c1.923,0,3.723,0.205,5.395,0.607
		c1.671,0.406,3.19,0.837,4.558,1.293c1.368,0.455,2.583,0.888,3.647,1.291c1.062,0.405,1.898,0.607,2.507,0.607
		c1.113,0,1.823-0.202,2.127-0.607c0.304-0.403,0.556-0.859,0.76-1.367h2.127v18.537h-1.975c-1.015-2.432-2.051-4.761-3.115-6.989
		c-1.064-2.228-2.331-4.179-3.799-5.851c-1.469-1.672-3.268-2.986-5.395-3.95c-2.127-0.961-4.762-1.443-7.9-1.443
		c-3.344,0-6.408,0.888-9.193,2.659c-2.787,1.772-4.178,4.383-4.178,7.825c0,0.71,0.099,1.52,0.303,2.431
		c0.202,0.912,0.658,1.85,1.368,2.811c0.707,0.965,1.823,1.927,3.343,2.888c1.52,0.964,3.544,1.899,6.078,2.811l12.915,4.407
		c5.47,1.925,9.623,4.458,12.46,7.597c2.835,3.142,4.254,7.143,4.254,12.004c0,3.344-0.736,6.358-2.203,9.041
		c-1.469,2.686-3.395,4.964-5.773,6.837c-2.381,1.876-5.143,3.32-8.281,4.331c-3.141,1.012-6.382,1.52-9.725,1.52
		c-1.823,0-3.799-0.204-5.927-0.607c-2.127-0.405-4.178-0.888-6.152-1.443c-1.977-0.556-3.775-1.037-5.396-1.443
		c-1.621-0.404-2.886-0.608-3.798-0.608c-0.812,0-1.394,0.152-1.748,0.456c-0.356,0.305-0.683,0.862-0.987,1.671h-2.127v-22.031
		H640.146L640.146,545.105z"/>
</g>
</svg>
